<svg id="nha-dan-logo-horizontal" width="560" height="140" viewBox="0 0 560 140" fill="none" xmlns="http://www.w3.org/2000/svg">
  <defs>
    <linearGradient id="goldHorizontal" x1="0%" y1="0%" x2="100%" y2="100%">
      <stop offset="0%" stop-color="#FFE259" />
      <stop offset="100%" stop-color="#FFA751" />
    </linearGradient>
    <linearGradient id="redHorizontal" x1="0%" y1="0%" x2="0%" y2="100%">
      <stop offset="0%" stop-color="#E53E3E" />
      <stop offset="100%" stop-color="#9B2C2C" />
    </linearGradient>
    <filter id="shadowHorizontal" x="-5%" y="-5%" width="110%" height="110%">
      <feDropShadow dx="2" dy="4" stdDeviation="3" flood-color="#000000" flood-opacity="0.3" />
    </filter>
  </defs>
  <rect x="5" y="5" width="550" height="130" rx="15" fill="#5B0E1B" stroke="url(#goldHorizontal)" stroke-width="4" filter="url(#shadowHorizontal)" />
  <rect x="13" y="13" width="534" height="114" rx="10" fill="none" stroke="#FFE259" stroke-width="1" stroke-dasharray="8 4" opacity="0.6" />
  <g fill="#FFE259">
    <circle cx="20" cy="20" r="4" />
    <circle cx="110" cy="13" r="3" />
    <circle cx="200" cy="13" r="3" />
    <circle cx="290" cy="13" r="3" />
    <circle cx="380" cy="13" r="3" />
    <circle cx="470" cy="13" r="3" />
    <circle cx="540" cy="20" r="4" />
    <circle cx="547" cy="70" r="3" />
    <circle cx="540" cy="120" r="4" />
    <circle cx="470" cy="127" r="3" />
    <circle cx="380" cy="127" r="3" />
    <circle cx="290" cy="127" r="3" />
    <circle cx="200" cy="127" r="3" />
    <circle cx="110" cy="127" r="3" />
    <circle cx="20" cy="120" r="4" />
    <circle cx="13" cy="70" r="3" />
  </g>
  <g transform="translate(30 20)" filter="url(#shadowHorizontal)">
    <path d="M45 10C35 25 32 30 25 45C15 65 15 85 35 95C55 100 70 90 75 75C80 55 70 30 55 10Z" fill="#FFFFFF" fill-opacity="0.15" stroke="#FFE259" stroke-width="1.5" />
    <path d="M45 10L50 2" stroke="#FFE259" stroke-width="1.5" />
    <path d="M38 15C45 15 48 12 48 12" stroke="#52C41A" stroke-width="2" fill="none" />
    <path d="M35 15C25 30 22 35 15 50C5 70 5 90 25 100C45 105 60 95 65 80C70 60 60 35 45 15Z" fill="#FFFFFF" fill-opacity="0.25" stroke="#FFE259" stroke-width="2" />
    <path d="M28 20C35 20 38 16 38 16" stroke="#22C55E" stroke-width="3" fill="none" />
    <path d="M35 15L38 5M32 16L25 6" stroke="#FFE259" stroke-width="2" />
    <rect x="20" y="55" width="4" height="6" rx="1" fill="#22C55E" transform="rotate(15 20 55)" />
    <rect x="35" y="70" width="5" height="4" rx="1" fill="#22C55E" transform="rotate(-30 35 70)" />
    <rect x="42" y="50" width="4" height="6" rx="1" fill="#22C55E" />
    <circle cx="18" cy="72" r="2.5" fill="#EF4444" />
    <circle cx="48" cy="65" r="2" fill="#EF4444" />
    <circle cx="30" cy="85" r="3" fill="#EF4444" />
    <ellipse cx="28" cy="50" rx="6" ry="4.5" fill="#FEF08A" stroke="#CA8A04" stroke-width="1" />
    <ellipse cx="40" cy="78" rx="7" ry="5" fill="#FFE066" stroke="#D97706" stroke-width="1" />
    <path d="M15 78Q25 75 22 83" stroke="#B91C1C" stroke-width="2.5" fill="none" stroke-linecap="round" />
    <path d="M35 55Q45 60 40 65" stroke="#B91C1C" stroke-width="2.5" fill="none" stroke-linecap="round" />
  </g>
  <text x="300" y="52" font-family="Montserrat, Arial, sans-serif" font-weight="800" font-size="34" fill="#FFE259" text-anchor="middle" letter-spacing="4" filter="url(#shadowHorizontal)">BÁNH TRÁNG</text>
  <text x="302" y="103" font-family="Playball, 'Segoe Script', cursive" font-size="52" font-weight="700" fill="url(#redHorizontal)" text-anchor="middle" stroke="#FFE259" stroke-width="1.5" filter="url(#shadowHorizontal)">Nhã Đan</text>
  <g transform="translate(460 20)" filter="url(#shadowHorizontal)">
    <rect x="10" y="20" width="60" height="75" rx="15" fill="#FFFFFF" fill-opacity="0.2" stroke="#FFE259" stroke-width="2" />
    <rect x="18" y="13" width="44" height="8" rx="2" fill="#FFFFFF" fill-opacity="0.3" stroke="#FFE259" stroke-width="1.5" />
    <rect x="15" y="2" width="50" height="12" rx="4" fill="url(#goldHorizontal)" stroke="#D35400" stroke-width="1" />
    <g stroke="#9E3D01" stroke-width="1.5">
      <line x1="20" y1="5" x2="20" y2="11" />
      <line x1="27" y1="5" x2="27" y2="11" />
      <line x1="34" y1="5" x2="34" y2="11" />
      <line x1="41" y1="5" x2="41" y2="11" />
      <line x1="48" y1="5" x2="48" y2="11" />
      <line x1="55" y1="5" x2="55" y2="11" />
      <line x1="60" y1="5" x2="60" y2="11" />
    </g>
    <g fill="#E65100">
      <circle cx="20" cy="35" r="2" />
      <circle cx="30" cy="30" r="1.5" />
      <circle cx="45" cy="32" r="2.5" />
      <circle cx="55" cy="36" r="2" />
      <circle cx="25" cy="50" r="2.5" />
      <circle cx="38" cy="45" r="2" />
      <circle cx="50" cy="48" r="2" />
      <circle cx="60" cy="52" r="1.5" />
      <circle cx="18" cy="65" r="2" />
      <circle cx="30" cy="60" r="3" />
      <circle cx="42" cy="62" r="2" />
      <circle cx="54" cy="64" r="2.5" />
      <circle cx="24" cy="78" r="2.5" />
      <circle cx="35" cy="74" r="2" />
      <circle cx="48" cy="76" r="3" />
      <circle cx="58" cy="75" r="1.5" />
    </g>
    <g fill="#FFA751">
      <circle cx="26" cy="38" r="1.5" />
      <circle cx="36" cy="35" r="2" />
      <circle cx="50" cy="38" r="1.5" />
      <circle cx="20" cy="46" r="2" />
      <circle cx="32" cy="48" r="2.5" />
      <circle cx="45" cy="44" r="2" />
      <circle cx="56" cy="46" r="2.5" />
      <circle cx="25" cy="62" r="1.5" />
      <circle cx="36" cy="66" r="2" />
      <circle cx="48" cy="58" r="2" />
      <circle cx="50" cy="68" r="1.5" />
      <circle cx="18" cy="74" r="2" />
      <circle cx="30" cy="72" r="1.5" />
      <circle cx="42" cy="75" r="2" />
      <circle cx="52" cy="72" r="2" />
    </g>
    <rect x="18" y="42" width="44" height="20" rx="3" fill="#900C3F" stroke="#FFE259" stroke-width="1" />
    <text x="40" y="51" font-family="Montserrat, Arial, sans-serif" font-weight="700" font-size="7" fill="#FFE259" text-anchor="middle">MUỐI TÔM</text>
    <text x="40" y="58" font-family="Montserrat, Arial, sans-serif" font-size="5" fill="#FFFFFF" text-anchor="middle">TÂY NINH</text>
  </g>
</svg>
