<svg id="nha-dan-logo-mark" width="32" height="32" viewBox="0 0 32 32" fill="none" xmlns="http://www.w3.org/2000/svg">
  <defs>
    <linearGradient id="markGold" x1="0%" y1="0%" x2="100%" y2="100%">
      <stop offset="0%" stop-color="#FFE259" />
      <stop offset="100%" stop-color="#FFA751" />
    </linearGradient>
    <linearGradient id="markRed" x1="0%" y1="0%" x2="0%" y2="100%">
      <stop offset="0%" stop-color="#FF5F56" />
      <stop offset="100%" stop-color="#B91C1C" />
    </linearGradient>
  </defs>
  <rect width="32" height="32" rx="7" fill="#5B0E1B" />
  <rect x="1" y="1" width="30" height="30" rx="6" fill="none" stroke="url(#markGold)" stroke-width="1" />
  <path d="M8 24V9C8 9 11 6 14 9L18 21C18 21 21 26 24 23V10" stroke="url(#markGold)" stroke-width="3.5" stroke-linecap="round" stroke-linejoin="round" />
  <path d="M20 16C17 21 16 22 19 25C22 28 26 27 27 24C28 21 25 17 22 15Z" fill="url(#markRed)" stroke="#FFE259" stroke-width="1" />
  <line x1="20" y1="16" x2="22" y2="14" stroke="#FFE259" stroke-width="1" />
</svg>
